<?xml version="1.0" encoding="UTF-8" standalone="no"?>
<!-- Created with Inkscape (http://www.inkscape.org/) -->

<svg
   xmlns:osb="http://www.openswatchbook.org/uri/2009/osb"
   xmlns:dc="http://purl.org/dc/elements/1.1/"
   xmlns:cc="http://creativecommons.org/ns#"
   xmlns:rdf="http://www.w3.org/1999/02/22-rdf-syntax-ns#"
   xmlns:svg="http://www.w3.org/2000/svg"
   xmlns="http://www.w3.org/2000/svg"
   xmlns:sodipodi="http://sodipodi.sourceforge.net/DTD/sodipodi-0.dtd"
   xmlns:inkscape="http://www.inkscape.org/namespaces/inkscape"
   width="32px"
   height="32px"
   viewBox="0 0 32 32"
   version="1.1"
   id="SVGRoot"
   inkscape:version="0.92.2 2405546, 2018-03-11"
   sodipodi:docname="integer.svg">
  <sodipodi:namedview
     id="base"
     pagecolor="#ffffff"
     bordercolor="#666666"
     borderopacity="1.0"
     inkscape:pageopacity="0.0"
     inkscape:pageshadow="2"
     inkscape:zoom="16"
     inkscape:cx="9.717661"
     inkscape:cy="20.133549"
     inkscape:document-units="px"
     inkscape:current-layer="layer1"
     showgrid="false"
     inkscape:window-width="1680"
     inkscape:window-height="1025"
     inkscape:window-x="0"
     inkscape:window-y="550"
     inkscape:window-maximized="1"
     inkscape:grid-bbox="true"
     inkscape:snap-page="true" />
  <defs
     id="defs14512">
    <marker
       inkscape:isstock="true"
       style="overflow:visible"
       id="marker14240"
       refX="0"
       refY="0"
       orient="auto"
       inkscape:stockid="TriangleOutM">
      <path
         inkscape:connector-curvature="0"
         transform="scale(0.4)"
         style="fill:#000000;fill-opacity:1;fill-rule:evenodd;stroke:#000000;stroke-width:1.00000003pt;stroke-opacity:1"
         d="M 5.77,0 -2.88,5 V -5 Z"
         id="path14238" />
    </marker>
    <linearGradient
       id="secondary_fill"
       osb:paint="solid">
      <stop
         style="stop-color:#f97900;stop-opacity:1;"
         offset="0"
         id="stop10708" />
    </linearGradient>
    <marker
       inkscape:isstock="true"
       style="overflow:visible"
       id="marker14002"
       refX="0"
       refY="0"
       orient="auto"
       inkscape:stockid="TriangleOutM">
      <path
         inkscape:connector-curvature="0"
         transform="scale(0.4)"
         style="fill:#000000;fill-opacity:1;fill-rule:evenodd;stroke:#000000;stroke-width:1.00000003pt;stroke-opacity:1"
         d="M 5.77,0 -2.88,5 V -5 Z"
         id="path14000" />
    </marker>
    <linearGradient
       id="background_icon_fill"
       osb:paint="solid">
      <stop
         style="stop-color:#ffffff;stop-opacity:0;"
         offset="0"
         id="stop10787" />
    </linearGradient>
    <linearGradient
       id="background_icon_stroke"
       osb:paint="solid">
      <stop
         style="stop-color:#5e5e5e;stop-opacity:1;"
         offset="0"
         id="stop10907" />
    </linearGradient>
    <marker
       inkscape:isstock="true"
       style="overflow:visible"
       id="marker16238"
       refX="0"
       refY="0"
       orient="auto"
       inkscape:stockid="Arrow2Mend">
      <path
         transform="scale(-0.6)"
         d="M 8.7185878,4.0337352 -2.2072895,0.01601326 8.7185884,-4.0017078 c -1.7454984,2.3720609 -1.7354408,5.6174519 -6e-7,8.035443 z"
         style="fill:#000000;fill-opacity:1;fill-rule:evenodd;stroke:#000000;stroke-width:0.625;stroke-linejoin:round;stroke-opacity:1"
         id="path16236"
         inkscape:connector-curvature="0" />
    </marker>
  </defs>
  <metadata
     id="metadata14515">
    <rdf:RDF>
      <cc:Work
         rdf:about="">
        <dc:format>image/svg+xml</dc:format>
        <dc:type
           rdf:resource="http://purl.org/dc/dcmitype/StillImage" />
        <dc:title />
      </cc:Work>
    </rdf:RDF>
  </metadata>
  <g
     id="layer1"
     inkscape:groupmode="layer"
     inkscape:label="Layer 1">
    <g
       style="display:inline"
       transform="matrix(2.2857144,0,0,2.2857144,-18.412651,-556.96298)"
       id="g22097">
      <g
         id="g22089">
        <path
           d="m 12.349064,249.78208 h 0.865408 v -3.14469 l -0.931554,0.20947 v -0.50712 l 0.926042,-0.20395 h 0.556727 v 3.64629 h 0.854384 v 0.46853 h -2.271007 z"
           style="font-style:normal;font-variant:normal;font-weight:normal;font-stretch:normal;font-size:5.64444447px;line-height:1.25;font-family:'DejaVu Sans Mono';-inkscape-font-specification:'DejaVu Sans Mono, Normal';font-variant-ligatures:normal;font-variant-caps:normal;font-variant-numeric:normal;font-feature-settings:normal;text-align:start;letter-spacing:0px;word-spacing:0px;writing-mode:lr-tb;text-anchor:start;fill:#000000;fill-opacity:1;stroke:none;stroke-width:0.26458332"
           id="path22085"
           inkscape:connector-curvature="0" />
        <path
           d="m 16.028426,249.78208 h 1.890668 v 0.46853 h -2.499761 v -0.46853 q 0.515386,-0.54295 0.901237,-0.95912 0.385851,-0.41616 0.531923,-0.58704 0.275607,-0.33624 0.37207,-0.54295 0.09646,-0.20946 0.09646,-0.42719 0,-0.34451 -0.20395,-0.54019 -0.201194,-0.19568 -0.553971,-0.19568 -0.250803,0 -0.526411,0.0909 -0.275608,0.091 -0.584288,0.27561 v -0.56224 q 0.283876,-0.13505 0.556727,-0.20395 0.275608,-0.0689 0.542947,-0.0689 0.603581,0 0.970139,0.32247 0.369315,0.3197 0.369315,0.8406 0,0.26458 -0.124024,0.52917 -0.121267,0.26458 -0.396875,0.58428 -0.15434,0.17915 -0.44924,0.4961 -0.292144,0.31695 -0.892969,0.94809 z"
           style="font-style:normal;font-variant:normal;font-weight:normal;font-stretch:normal;font-size:5.64444447px;line-height:1.25;font-family:'DejaVu Sans Mono';-inkscape-font-specification:'DejaVu Sans Mono, Normal';font-variant-ligatures:normal;font-variant-caps:normal;font-variant-numeric:normal;font-feature-settings:normal;text-align:start;letter-spacing:0px;word-spacing:0px;writing-mode:lr-tb;text-anchor:start;fill:#000000;fill-opacity:1;stroke:none;stroke-width:0.26458332"
           id="path22087"
           inkscape:connector-curvature="0" />
      </g>
      <g
         id="g22095"
         transform="translate(0,-2.1047475)">
        <path
           d="m 13.743639,255.10406 q 0.405143,0.10749 0.620117,0.3831 0.214974,0.27285 0.214974,0.6835 0,0.56775 -0.383095,0.89297 -0.380338,0.32246 -1.055577,0.32246 -0.283876,0 -0.578776,-0.0524 -0.2949,-0.0524 -0.578776,-0.15159 v -0.55397 q 0.28112,0.14607 0.553971,0.21773 0.272852,0.0717 0.542947,0.0717 0.457509,0 0.7028,-0.20671 0.24529,-0.2067 0.24529,-0.59531 0,-0.35829 -0.24529,-0.56775 -0.245291,-0.21222 -0.664215,-0.21222 h -0.424436 v -0.45751 h 0.424436 q 0.383095,0 0.598069,-0.16812 0.214974,-0.16812 0.214974,-0.46853 0,-0.31695 -0.201194,-0.48507 -0.198437,-0.17088 -0.567752,-0.17088 -0.24529,0 -0.507118,0.0551 -0.261827,0.0551 -0.548459,0.16537 v -0.51263 q 0.333485,-0.0882 0.592557,-0.13229 0.261827,-0.0441 0.46302,-0.0441 0.600825,0 0.959115,0.30317 0.361046,0.30041 0.361046,0.79926 0,0.339 -0.190169,0.565 -0.187413,0.22599 -0.548459,0.3197 z"
           style="font-style:normal;font-variant:normal;font-weight:normal;font-stretch:normal;font-size:5.64444447px;line-height:1.25;font-family:'DejaVu Sans Mono';-inkscape-font-specification:'DejaVu Sans Mono, Normal';font-variant-ligatures:normal;font-variant-caps:normal;font-variant-numeric:normal;font-feature-settings:normal;text-align:start;letter-spacing:0px;word-spacing:0px;writing-mode:lr-tb;text-anchor:start;fill:#000000;fill-opacity:1;stroke:none;stroke-width:0.26458332"
           id="path22091"
           inkscape:connector-curvature="0" />
        <path
           d="m 17.026126,253.69846 -1.298112,2.17455 h 1.298112 z m -0.09095,-0.50712 h 0.644922 v 2.68167 h 0.548459 v 0.45199 h -0.548459 v 0.98117 H 17.026126 V 256.325 h -1.744597 v -0.52641 z"
           style="font-style:normal;font-variant:normal;font-weight:normal;font-stretch:normal;font-size:5.64444447px;line-height:1.25;font-family:'DejaVu Sans Mono';-inkscape-font-specification:'DejaVu Sans Mono, Normal';font-variant-ligatures:normal;font-variant-caps:normal;font-variant-numeric:normal;font-feature-settings:normal;text-align:start;letter-spacing:0px;word-spacing:0px;writing-mode:lr-tb;text-anchor:start;fill:#000000;fill-opacity:1;stroke:none;stroke-width:0.26458332"
           id="path22093"
           inkscape:connector-curvature="0" />
      </g>
    </g>
  </g>
</svg>
